<svg width="36" height="26" viewBox="0 0 36 26" fill="none" xmlns="http://www.w3.org/2000/svg">
<path id="Vector" d="M34.3099 12.8664L18.3916 0.439278C18.277 0.349559 18.1409 0.278379 17.991 0.229814C17.8412 0.181248 17.6805 0.15625 17.5182 0.15625C17.356 0.15625 17.1953 0.181248 17.0455 0.229814C16.8956 0.278379 16.7595 0.349559 16.6448 0.439278L0.726545 12.8664C0.262793 13.2287 0 13.7208 0 14.2341C0 15.2999 1.10914 16.1664 2.47335 16.1664H4.15058V25.0339C4.15058 25.5683 4.70322 26 5.38726 26H15.0449V19.237H19.3733V26H29.6492C30.3333 26 30.8859 25.5683 30.8859 25.0339V16.1664H32.5631C33.2201 16.1664 33.8501 15.9641 34.3138 15.5988C35.2761 14.844 35.2761 13.6212 34.3099 12.8664Z" fill="white"/>
</svg>
