<svg width="35" height="29" viewBox="0 0 35 29" fill="none" xmlns="http://www.w3.org/2000/svg">
<g id="travel_luggage_and_bags">
<mask id="mask0_1257_760" style="mask-type:alpha" maskUnits="userSpaceOnUse" x="0" y="0" width="35" height="29">
<rect id="Bounding box" y="0.72998" width="35" height="27.3438" fill="#D9D9D9"/>
</mask>
<g mask="url(#mask0_1257_760)">
<path id="travel_luggage_and_bags_2" d="M8.91667 23.5164V22.3771C8.11458 22.3771 7.42795 22.154 6.85677 21.7078C6.28559 21.2615 6 20.7251 6 20.0985V7.56592C6 6.93929 6.28559 6.40286 6.85677 5.95663C7.42795 5.51039 8.11458 5.28727 8.91667 5.28727H11.8333V1.8693C11.8333 1.5465 11.9731 1.27591 12.2526 1.05754C12.5321 0.839166 12.8785 0.72998 13.2917 0.72998H19.125C19.5382 0.72998 19.8845 0.839166 20.1641 1.05754C20.4436 1.27591 20.5833 1.5465 20.5833 1.8693V5.28727H23.5C24.3021 5.28727 24.9887 5.51039 25.5599 5.95663C26.1311 6.40286 26.4167 6.93929 26.4167 7.56592V20.0985C26.4167 20.7251 26.1311 21.2615 25.5599 21.7078C24.9887 22.154 24.3021 22.3771 23.5 22.3771V23.5164H20.5833V22.3771H11.8333V23.5164H8.91667ZM14.75 5.28727H17.6667V3.00863H14.75V5.28727ZM16.2083 12.1232C17.4965 12.1232 18.7543 11.995 19.9818 11.7387C21.2092 11.4823 22.3819 11.0978 23.5 10.5851V7.56592H8.91667V10.5851C10.0347 11.0978 11.2075 11.4823 12.4349 11.7387C13.6623 11.995 14.9201 12.1232 16.2083 12.1232ZM14.75 15.5412V14.3449C13.7292 14.25 12.7326 14.1075 11.7604 13.9176C10.7882 13.7278 9.84028 13.4714 8.91667 13.1486V20.0985H23.5V13.1486C22.5764 13.4714 21.6285 13.7278 20.6562 13.9176C19.684 14.1075 18.6875 14.25 17.6667 14.3449V15.5412H14.75Z" fill="white"/>
</g>
</g>
</svg>
