<svg width="35" height="27" viewBox="0 0 35 27" fill="none" xmlns="http://www.w3.org/2000/svg">
<g id="Group 11">
<path id="Vector" d="M34.3525 6.30456L21.8525 0.933472C21.668 0.854143 21.4607 0.812546 21.25 0.812546C21.0394 0.812546 20.8321 0.854143 20.6475 0.933472L8.14754 6.30456C7.95155 6.38886 7.78812 6.51271 7.6743 6.66319C7.56047 6.81366 7.50043 6.98524 7.50043 7.16003C7.50043 7.33482 7.56047 7.5064 7.6743 7.65687C7.78812 7.80735 7.95155 7.9312 8.14754 8.0155L20 13.1083V23.576L16.205 21.9452L15 23.6551L20.6475 26.0819C20.8321 26.1612 21.0394 26.2028 21.25 26.2028C21.4607 26.2028 21.668 26.1612 21.8525 26.0819L34.3525 20.7108C34.5486 20.6265 34.7121 20.5027 34.826 20.3522C34.9399 20.2018 35 20.0301 35 19.8553V7.16003C35 6.98521 34.9399 6.81361 34.826 6.66313C34.7121 6.51266 34.5486 6.38882 34.3525 6.30456ZM21.25 2.90417L31.1563 7.16003L21.25 11.4159L11.3438 7.16003L21.25 2.90417ZM32.5 19.2782L22.5 23.5751V13.1073L32.5 8.81042V19.2782Z" fill="#F8F8F8"/>
<path id="Vector_2" d="M10 13.5076H0V11.5545H10V13.5076ZM12.5 21.3201H2.5V19.367H12.5V21.3201ZM15 17.4139H5V15.4607H15V17.4139Z" fill="#F8F8F8"/>
</g>
</svg>
