<svg width="120" height="33" viewBox="0 0 120 33" fill="none" xmlns="http://www.w3.org/2000/svg">
<g id="logoV2Roouge">
<g id="logoV2Blanc">
<g id="Group">
<path id="Vector" d="M75.8312 31.7847C75.7579 31.7657 75.714 31.7161 75.714 31.6627V31.6284L75.8019 31.3844C75.6115 31.4034 75.426 31.4149 75.2455 31.4263H75.2259C75.143 31.4263 75.0698 31.3729 75.0649 31.3081V31.3005C75.0649 31.2319 75.1332 31.1747 75.2211 31.1708C75.4456 31.1556 75.6701 31.1365 75.8995 31.1175L76.3778 29.7181C76.451 29.4588 76.5291 29.1919 76.5974 28.9173C76.8268 28.006 76.9342 27.2358 76.9342 26.6181C76.9342 26.0004 76.817 25.5123 76.5681 25.234C76.4071 25.0433 76.1874 24.9442 75.8995 24.9289C75.7482 24.9213 75.5871 24.9022 75.5237 24.7993C75.509 24.7764 75.4993 24.7497 75.4993 24.7268C75.4993 24.6887 75.5188 24.6544 75.5481 24.6201C75.7433 24.4065 76.8951 24.0977 78.3886 23.8346L78.6766 22.9995C78.6961 22.9461 78.7596 22.9042 78.8328 22.9042L78.8816 22.9118C78.9499 22.9271 79.0036 22.9766 79.0036 23.0338L78.9938 23.072L78.7498 23.7774C78.9792 23.7392 79.2135 23.7011 79.4526 23.6668C80.5556 23.5066 82.4542 23.2893 84.5432 23.2893C85.2753 23.2893 86.0318 23.316 86.7883 23.3808C89.0675 23.5753 89.5556 24.2883 89.5556 24.8603V24.8832C89.541 25.4322 89.0724 26.1071 88.1939 26.824C87.3642 27.5027 86.1928 28.2081 84.8165 28.8563C83.4011 29.5274 81.8197 30.1146 80.2335 30.5493C78.8279 30.9421 77.4662 31.209 76.1679 31.3462L76.0313 31.7009C76.0069 31.7542 75.9434 31.7886 75.8751 31.7886C75.8604 31.7886 75.8458 31.7886 75.8312 31.7886V31.7847ZM78.291 24.1129C77.1196 24.3303 76.3241 24.5438 75.9873 24.6811C76.3387 24.7154 76.6267 24.8526 76.8366 25.0929C77.1392 25.4399 77.2563 25.9889 77.2563 26.6257C77.2563 26.8164 77.2417 27.0185 77.227 27.2205L78.291 24.1167V24.1129ZM84.6457 28.6352C87.4081 27.3311 89.1993 25.8555 89.2237 24.8793V24.8603C89.2237 24.0214 87.8767 23.7316 86.7492 23.6325C86.0122 23.5677 85.2655 23.541 84.5432 23.541C82.4884 23.541 80.6191 23.7583 79.5258 23.9146C79.2183 23.9604 78.9255 24.0023 78.6571 24.0519L76.7097 29.7257C76.5535 30.2557 76.3924 30.7247 76.2704 31.0755C78.9645 30.7628 82.0198 29.8782 84.6505 28.639L84.6457 28.6352Z" fill="#FF9F02"/>
<path id="Vector_2" d="M89.0577 28.2842C88.9504 28.2194 88.7795 28.0707 88.7795 27.8191C88.7795 27.6665 88.843 27.4797 89.0138 27.2509C89.5653 26.5074 90.4292 26.1375 90.8782 26.1375H90.9514C91.1369 26.1604 91.1857 26.2557 91.1955 26.2938V26.3434C91.1955 26.454 91.0832 26.576 90.8489 26.7133C90.1949 27.0869 89.7947 27.1785 89.5605 27.1785L89.4677 27.1708C89.3213 27.3348 89.1065 27.5788 89.1065 27.8191C89.1065 27.9182 89.1505 28.0097 89.2627 28.0822C89.3896 28.166 89.5897 28.2042 89.8338 28.2042C90.0778 28.2042 90.3414 28.166 90.6488 28.0936C91.1857 27.9601 92.0496 27.6513 93.1233 26.9192C93.1526 26.9001 93.1917 26.8887 93.2307 26.8887C93.3235 26.8887 93.3967 26.9459 93.3967 27.0145C93.3967 27.0526 93.3771 27.087 93.343 27.1098C92.2253 27.8724 91.3175 28.2004 90.7513 28.3376C90.4194 28.4215 90.112 28.4596 89.8435 28.4596C89.5116 28.4596 89.2432 28.4024 89.0577 28.2766V28.2842ZM90.6537 26.5036C90.7318 26.4578 90.7806 26.4235 90.8148 26.3968C90.6098 26.4159 90.1803 26.5569 89.7703 26.8925C89.9509 26.8467 90.234 26.7438 90.6537 26.5036Z" fill="#FF9F02"/>
<path id="Vector_3" d="M92.8013 28.616C92.8013 27.9868 93.0795 27.0221 93.6359 25.7028C94.2313 24.2958 94.9439 22.9917 94.9439 22.9803C94.9683 22.9307 95.0317 22.9002 95.0952 22.9002C95.183 22.9002 95.2611 22.9574 95.2611 23.0337C95.2611 23.0489 95.2611 23.0642 95.2514 23.0833C95.2416 23.0985 94.5388 24.3873 93.9482 25.7905C93.3089 27.2928 93.1332 28.1431 93.1332 28.6236C93.1332 28.9172 93.1966 29.0735 93.2698 29.1574C93.3381 29.2375 93.426 29.2756 93.5578 29.2756C94.1386 29.2756 95.022 28.8638 96.1104 28.086C96.9498 27.4873 97.6136 26.8849 97.6185 26.8772C97.6478 26.8467 97.6966 26.8315 97.7405 26.8315C97.8284 26.8315 97.9065 26.8887 97.9065 26.9573C97.9065 26.9878 97.8918 27.0183 97.8674 27.045C97.7552 27.1441 95.1391 29.5311 93.5529 29.5311C93.0892 29.5311 92.7964 29.2489 92.7964 28.616H92.8013Z" fill="#FF9F02"/>
<path id="Vector_4" d="M97.3306 28.3224C97.3306 28.1127 97.3599 27.8724 97.4233 27.6017C97.5404 27.1022 97.721 26.6828 97.7259 26.6637C97.7503 26.6103 97.8138 26.576 97.8821 26.576C97.9699 26.576 98.048 26.6332 98.048 26.7057L98.0383 26.7476C97.9016 27.0641 97.6576 27.7809 97.6576 28.33C97.6576 28.7532 97.7893 29.0507 98.2091 29.0507C99.2633 29.0507 100.64 27.4911 101.079 26.8925C101.108 26.8467 101.167 26.8277 101.225 26.8277C101.313 26.8277 101.391 26.881 101.391 26.9535C101.391 26.9764 101.382 26.9993 101.367 27.0183C101.299 27.1098 99.6684 29.3061 98.2042 29.3061C97.6527 29.3061 97.3257 28.9858 97.3257 28.3186L97.3306 28.3224ZM97.8382 25.8172C97.8382 25.7791 97.8577 25.741 97.8967 25.7181L98.2872 25.4588C98.3165 25.4397 98.3555 25.4283 98.3994 25.4283C98.4873 25.4283 98.5654 25.4855 98.5654 25.5541C98.5654 25.5923 98.541 25.6304 98.5019 25.6533L98.1115 25.9125C98.0773 25.9316 98.0431 25.943 97.9992 25.943C97.9211 25.943 97.8382 25.8897 97.8382 25.8172Z" fill="#FF9F02"/>
<path id="Vector_5" d="M101.064 27.9334C101.064 27.3615 101.128 26.8429 101.128 26.8353C101.137 26.7705 101.206 26.7171 101.294 26.7171C101.391 26.7171 101.455 26.7705 101.455 26.8429V26.8582C101.455 26.8582 101.396 27.3462 101.391 27.9067C101.391 28.5244 101.479 28.7113 101.513 28.7609C101.547 28.738 101.63 28.6732 101.762 28.4939C102.729 27.1632 102.977 26.7933 102.977 26.7895C103.007 26.7438 103.07 26.7171 103.134 26.7171C103.217 26.7171 103.29 26.7666 103.29 26.8315C103.348 26.8543 103.534 26.9115 104.11 26.9115C104.466 26.9115 104.974 26.8925 105.681 26.8315H105.701C105.794 26.8315 105.862 26.8848 105.867 26.9573C105.867 27.0221 105.803 27.0793 105.715 27.0869C105.061 27.1403 104.52 27.167 104.1 27.167C103.646 27.167 103.324 27.1327 103.158 27.0717C103.007 27.289 102.689 27.7466 102.05 28.6198C101.904 28.8142 101.718 29.0278 101.499 29.0278C101.289 29.0278 101.059 28.8981 101.059 27.9334H101.064Z" fill="#FF9F02"/>
<path id="Vector_6" d="M105.379 28.2842C105.271 28.2194 105.101 28.0707 105.101 27.8191C105.101 27.6665 105.164 27.4797 105.335 27.2509C105.886 26.5074 106.75 26.1375 107.199 26.1375H107.272C107.458 26.1604 107.507 26.2557 107.517 26.2938V26.3434C107.517 26.454 107.404 26.576 107.17 26.7133C106.516 27.0869 106.116 27.1785 105.881 27.1785L105.789 27.1708C105.642 27.3348 105.428 27.5788 105.428 27.8191C105.428 27.9182 105.472 28.0097 105.584 28.0822C105.711 28.166 105.911 28.2042 106.155 28.2042C106.399 28.2042 106.662 28.166 106.97 28.0936C107.507 27.9601 108.371 27.6513 109.444 26.9192C109.474 26.9001 109.513 26.8887 109.552 26.8887C109.644 26.8887 109.718 26.9459 109.718 27.0145C109.718 27.0526 109.698 27.087 109.664 27.1098C108.546 27.8724 107.639 28.2004 107.072 28.3376C106.74 28.4215 106.433 28.4596 106.165 28.4596C105.833 28.4596 105.564 28.4024 105.379 28.2766V28.2842ZM106.975 26.5036C107.053 26.4578 107.102 26.4235 107.136 26.3968C106.931 26.4159 106.501 26.5569 106.091 26.8925C106.272 26.8467 106.555 26.7438 106.975 26.5036Z" fill="#FF9F02"/>
<path id="Vector_7" d="M110.357 28.7723C110.357 28.4063 110.591 27.8915 110.87 27.453C110.992 27.2623 111.172 26.9802 111.284 26.7857C111.026 26.9077 110.645 27.0869 110.201 27.167C110.074 27.1861 109.962 27.1975 109.864 27.1975C109.684 27.1975 109.552 27.1594 109.469 27.0831C109.43 27.0488 109.376 26.9916 109.376 26.8925C109.376 26.8696 109.376 26.8429 109.391 26.8086C109.391 26.7781 109.401 26.7628 109.415 26.74C109.527 26.4921 109.913 26.1794 110.264 26.1337C110.299 26.1261 110.333 26.1261 110.362 26.1261C110.508 26.1261 110.582 26.1985 110.582 26.2824C110.582 26.3777 110.45 26.4845 110.103 26.679C109.947 26.7667 109.801 26.8429 109.713 26.8887C109.713 26.9001 109.713 26.9077 109.723 26.9077C109.723 26.9077 109.752 26.9344 109.874 26.9344C109.937 26.9344 110.025 26.9268 110.142 26.9077C110.831 26.7895 111.28 26.4082 111.528 26.4082C111.636 26.4082 111.729 26.4807 111.729 26.5722C111.729 26.6446 111.685 26.7323 111.626 26.8391C111.543 26.9954 111.387 27.2395 111.187 27.5598C110.816 28.1355 110.699 28.5435 110.699 28.7685C110.699 28.8905 110.713 28.9668 110.811 28.9668C110.909 28.9668 111.119 28.8981 111.485 28.6312C111.963 28.2804 112.553 27.697 113.232 26.9001C113.261 26.862 113.32 26.8429 113.373 26.8429C113.461 26.8429 113.534 26.9001 113.534 26.9726C113.534 26.9954 113.525 27.0221 113.51 27.045C112.632 28.0707 111.489 29.2261 110.806 29.2261C110.538 29.2261 110.377 29.0507 110.377 28.7609L110.357 28.7723Z" fill="#FF9F02"/>
<path id="Vector_8" d="M112.041 31.2813C112.041 30.45 113.041 29.1498 114.525 28.1584C114.95 27.8724 115.516 27.5559 116.175 27.3005C116.16 27.1632 116.15 27.045 116.136 26.9497C115.692 27.3081 114.833 27.8915 113.71 27.922C113.207 27.922 112.988 27.7352 112.988 27.4721C112.988 27.1098 113.388 26.6751 113.481 26.576C113.515 26.5417 113.569 26.5226 113.617 26.5226C113.71 26.5226 113.778 26.5836 113.778 26.6484C113.778 26.6751 113.769 26.7018 113.749 26.7285C113.549 26.9382 113.32 27.27 113.32 27.4721C113.32 27.5102 113.329 27.5407 113.344 27.5674C113.403 27.6475 113.569 27.6627 113.71 27.6627C115.047 27.6284 116.116 26.5798 116.121 26.5722C116.155 26.5417 116.204 26.5226 116.253 26.5226C116.331 26.5226 116.409 26.5684 116.414 26.6294C116.414 26.6485 116.458 26.8582 116.492 27.1823C117.009 27.0069 117.58 26.8772 118.195 26.8277H118.215C118.308 26.8277 118.371 26.881 118.376 26.9573C118.376 27.0183 118.313 27.0793 118.225 27.0831C117.629 27.1289 117.058 27.2623 116.521 27.4492C116.536 27.6322 116.546 27.8343 116.546 28.0516C116.546 28.3872 116.521 28.7609 116.463 29.1384C116.189 30.8618 115.228 31.8875 113.681 32.1011C113.505 32.124 113.349 32.1392 113.198 32.1392C112.431 32.1392 112.046 31.7998 112.046 31.2775L112.041 31.2813ZM113.617 31.8494C115.023 31.6511 115.867 30.7284 116.126 29.1117C116.189 28.7494 116.209 28.3948 116.209 28.0669C116.209 27.8915 116.199 27.7275 116.189 27.575C114.447 28.2842 113.105 29.5845 112.607 30.5034C112.451 30.8008 112.363 31.0677 112.363 31.2813C112.363 31.4491 112.412 31.5863 112.514 31.6817C112.671 31.8342 112.929 31.8761 113.198 31.8761C113.344 31.8761 113.486 31.8609 113.617 31.8456V31.8494Z" fill="#FF9F02"/>
</g>
<path id="Vector_9" d="M30.3334 21.3065L38.289 7.32025C38.3817 7.15248 38.5964 7.04572 38.8307 7.04572H42.4278C42.6621 7.04572 42.8719 7.15248 42.9695 7.32025L50.9983 21.3065C51.174 21.6115 50.886 21.9585 50.4565 21.9585H47.1279C46.8887 21.9585 46.674 21.8479 46.5812 21.6725L40.0655 9.43267C39.9045 9.12763 40.1875 8.79209 40.6122 8.79209C41.0319 8.79209 41.3199 9.12763 41.1588 9.43267L34.6431 21.6725C34.5504 21.8441 34.3356 21.9585 34.0965 21.9585H30.8752C30.4457 21.9585 30.1626 21.6153 30.3334 21.3103V21.3065ZM34.5064 18.1531L35.2288 16.4563C35.3069 16.2694 35.5363 16.1398 35.7901 16.1398H44.8095C45.0633 16.1398 45.2879 16.2656 45.3708 16.4525L46.1127 18.1493C46.2445 18.4505 45.9565 18.7594 45.5514 18.7594H35.0677C34.6626 18.7594 34.3795 18.4505 34.5064 18.1531Z" fill="white"/>
<path id="Vector_10" d="M57.8019 21.9585H53.3556V7.05715C53.3556 7.05715 53.3605 7.04572 53.3702 7.04572H57.7872C57.7872 7.04572 57.8019 7.04953 57.8019 7.05715V21.9585ZM66.7726 15.8462H57.4456V12.9292H66.7726V15.8462ZM66.4456 7.04953H70.8626V31.9029H68.227C67.2411 31.9029 66.4456 31.2089 66.4456 30.3548V7.05334V7.04953Z" fill="white"/>
<path id="Vector_11" d="M75.3871 21.5276V7.47659C75.3871 7.24018 75.6311 7.04572 75.9386 7.04572H78.7304C78.9207 7.04572 79.1013 7.12579 79.1989 7.25162L86.6615 16.9138C86.8811 17.1998 86.6175 17.5659 86.1929 17.5659C85.7683 17.5659 85.5047 17.2036 85.7195 16.9177L93.0307 7.25543C93.1284 7.12579 93.3089 7.04572 93.5042 7.04572H96.3203C96.6229 7.04572 96.8718 7.23637 96.8718 7.47659V21.5276C96.8718 21.764 96.6278 21.9585 96.3203 21.9585H93.2992C92.9966 21.9585 92.7525 21.7678 92.7477 21.5314L92.694 12.0103H93.5139L87.2374 20.1511C87.1398 20.2808 86.9592 20.3608 86.7688 20.3608H85.4266C85.2363 20.3608 85.0557 20.2846 84.9581 20.1549L78.6035 12.0103H79.5015V21.5276C79.5015 21.764 79.2575 21.9585 78.95 21.9585H75.9337C75.6311 21.9585 75.3822 21.7678 75.3822 21.5276H75.3871Z" fill="white"/>
<path id="Vector_12" d="M99.2828 21.3065L107.238 7.32025C107.331 7.15248 107.546 7.04572 107.78 7.04572H111.377C111.611 7.04572 111.821 7.15248 111.919 7.32025L119.948 21.3065C120.123 21.6115 119.835 21.9585 119.406 21.9585H116.077C115.838 21.9585 115.623 21.8479 115.531 21.6725L109.015 9.43267C108.854 9.12763 109.137 8.79209 109.561 8.79209C109.981 8.79209 110.269 9.12763 110.108 9.43267L103.592 21.6725C103.5 21.8441 103.285 21.9585 103.046 21.9585H99.8246C99.3951 21.9585 99.112 21.6153 99.2828 21.3103V21.3065ZM103.451 18.1531L104.173 16.4563C104.251 16.2694 104.481 16.1398 104.735 16.1398H113.754C114.008 16.1398 114.232 16.2656 114.315 16.4525L115.057 18.1493C115.189 18.4505 114.901 18.7594 114.496 18.7594H104.012C103.607 18.7594 103.324 18.4505 103.451 18.1531Z" fill="white"/>
<path id="Vector_13" d="M15.8037 10.5842C16.2485 10.5842 16.609 10.3025 16.609 9.95504C16.609 9.60757 16.2485 9.32588 15.8037 9.32588C15.359 9.32588 14.9984 9.60757 14.9984 9.95504C14.9984 10.3025 15.359 10.5842 15.8037 10.5842Z" fill="white"/>
<path id="Vector_14" d="M17.7023 7.83499L16.077 6.33647C16.0331 6.29453 15.9648 6.26784 15.8915 6.26784H14.5542C14.4176 6.26784 14.3053 6.35554 14.3102 6.4623L14.442 9.73388C14.442 9.83683 14.5542 9.9169 14.686 9.9169H17.5119C17.6437 9.9169 17.756 9.83302 17.756 9.72625V7.9532C17.756 7.90744 17.7364 7.86549 17.6974 7.83118L17.7023 7.83499ZM15.6866 8.06759C15.3059 8.06759 14.9935 7.82736 14.9935 7.52613C14.9935 7.2249 15.301 6.98468 15.6866 6.98468C16.0721 6.98468 16.3796 7.2249 16.3796 7.52613C16.3796 7.82736 16.0721 8.06759 15.6866 8.06759Z" fill="#FF9F02"/>
<path id="Vector_15" d="M13.3926 5.00952H8.20444C7.97992 5.00952 7.77982 5.12773 7.72125 5.29931L7.48698 6.00091H10.3568C10.635 6.00091 10.8644 6.18012 10.8644 6.39747C10.8644 6.61481 10.635 6.79402 10.3568 6.79402H7.21854L6.6231 8.57852H9.08784C9.36604 8.57852 9.59543 8.75773 9.59543 8.97507C9.59543 9.19241 9.36604 9.37163 9.08784 9.37163H6.35954L6.11551 10.0961C6.03253 10.3439 6.27169 10.5842 6.5987 10.5842H13.3926C13.6659 10.5842 13.8904 10.4088 13.8904 10.1952V5.39464C13.8904 5.18111 13.6659 5.00571 13.3926 5.00571V5.00952Z" fill="#FF9F02"/>
<path id="Vector_16" d="M23.3443 14.9043C23.3443 14.9043 23.3687 14.8967 23.3833 14.8929C25.033 14.2828 26.3069 13.3867 27.2049 12.2161C28.103 11.0455 28.552 9.63851 28.552 7.99891C28.552 6.35931 28.103 4.97899 27.2049 3.79695C26.3069 2.61491 25.033 1.7074 23.3833 1.07444C21.7337 0.441478 19.7668 0.125 17.4875 0.125L0 0.285147L2.48915 3.02672C3.22125 3.83127 4.34869 4.29645 5.53469 4.28501L11.494 4.23545H17.1556C18.9517 4.23545 20.3085 4.56337 21.231 5.21539C22.1534 5.86742 22.6122 6.7978 22.6122 8.00272C22.6122 9.20764 22.1534 10.1418 21.231 10.8053C20.3085 11.4688 18.9517 11.8005 17.1556 11.8005H12.3872L6.45714 11.934V21.9203H12.3872V15.8194H17.4826C17.5704 15.8194 17.6485 15.8118 17.7364 15.8118L22.6854 21.9241H29.0156L23.3394 14.9158L23.3443 14.9043Z" fill="white"/>
</g>
</g>
</svg>
