<svg width="26" height="26" viewBox="0 0 26 26" fill="none" xmlns="http://www.w3.org/2000/svg">
<g id="Icon" clip-path="url(#clip0_893_1463)">
<path id="Vector" d="M24.2439 8.466L18.0427 2.216C17.5544 1.79283 17.0173 1.58124 16.4314 1.58124H9.88843C9.26994 1.58124 8.7491 1.79283 8.32593 2.216L2.07593 8.466C1.65275 8.92173 1.44116 9.42629 1.44116 9.97968V16.5226C1.44116 17.1411 1.65275 17.662 2.07593 18.0851L8.2771 24.3351C8.76538 24.7909 9.28621 25.0187 9.8396 25.0187H16.3826C17.0011 25.0187 17.5219 24.8071 17.9451 24.384L24.1951 18.1828C24.6508 17.6945 24.8787 17.1574 24.8787 16.5715V10.0285C24.8787 9.41001 24.6671 8.88918 24.2439 8.466ZM18.824 11.1516L12.574 17.4016C12.281 17.662 11.9555 17.7922 11.5974 17.7922C11.2393 17.7922 10.9138 17.662 10.6208 17.4016L7.49585 14.2766C7.23543 13.9836 7.10522 13.6581 7.10522 13.3C7.10522 12.9419 7.23543 12.6164 7.49585 12.3234C7.78882 12.063 8.11434 11.9328 8.47241 11.9328C8.83048 11.9328 9.15601 12.063 9.44897 12.3234L11.5974 14.4719L16.8708 9.19843C17.1638 8.93801 17.4893 8.8078 17.8474 8.8078C18.2055 8.8078 18.531 8.93801 18.824 9.19843C19.0844 9.49139 19.2146 9.81691 19.2146 10.175C19.2146 10.5331 19.0844 10.8586 18.824 11.1516Z" fill="#B50302"/>
</g>
<defs>
<clipPath id="clip0_893_1463">
<rect width="25" height="25" fill="white" transform="matrix(1 0 0 -1 0.659912 25.8)"/>
</clipPath>
</defs>
</svg>
