<svg width="75" height="75" viewBox="0 0 75 75" fill="none" xmlns="http://www.w3.org/2000/svg">
<g filter="url(#filter0_d_919_87)">
<rect x="14.2002" y="12.96" width="46" height="46" rx="23" fill="white" fill-opacity="0.01" shape-rendering="crispEdges"/>
<rect x="14.7002" y="13.46" width="45" height="45" rx="22.5" stroke="white" shape-rendering="crispEdges"/>
<path d="M43.7377 33.71C43.7377 33.8662 43.7377 33.9912 43.7377 34.1475C43.7377 38.4912 40.4564 43.46 34.4252 43.46C32.5502 43.46 30.8314 42.9287 29.3939 41.9912C29.6439 42.0225 29.8939 42.0537 30.1752 42.0537C31.7064 42.0537 33.1127 41.5225 34.2377 40.6475C32.8002 40.6162 31.5814 39.6787 31.1752 38.3662C31.3939 38.3975 31.5814 38.4287 31.8002 38.4287C32.0814 38.4287 32.3939 38.3662 32.6439 38.3037C31.1439 37.9912 30.0189 36.6787 30.0189 35.085V35.0537C30.4564 35.3037 30.9877 35.4287 31.5189 35.46C30.6127 34.8662 30.0502 33.8662 30.0502 32.7412C30.0502 32.1162 30.2064 31.5537 30.4877 31.085C32.1127 33.0537 34.5502 34.3662 37.2689 34.5225C37.2064 34.2725 37.1752 34.0225 37.1752 33.7725C37.1752 31.96 38.6439 30.4912 40.4564 30.4912C41.3939 30.4912 42.2377 30.8662 42.8627 31.5225C43.5814 31.3662 44.3002 31.085 44.9252 30.71C44.6752 31.4912 44.1752 32.1162 43.4877 32.5225C44.1439 32.46 44.8002 32.2725 45.3627 32.0225C44.9252 32.6787 44.3627 33.2412 43.7377 33.71Z" fill="white"/>
</g>
<defs>
<filter id="filter0_d_919_87" x="0.200195" y="0.959961" width="74" height="74" filterUnits="userSpaceOnUse" color-interpolation-filters="sRGB">
<feFlood flood-opacity="0" result="BackgroundImageFix"/>
<feColorMatrix in="SourceAlpha" type="matrix" values="0 0 0 0 0 0 0 0 0 0 0 0 0 0 0 0 0 0 127 0" result="hardAlpha"/>
<feOffset dy="2"/>
<feGaussianBlur stdDeviation="7"/>
<feComposite in2="hardAlpha" operator="out"/>
<feColorMatrix type="matrix" values="0 0 0 0 0.0156863 0 0 0 0 0.0235294 0 0 0 0 0.258824 0 0 0 0.1 0"/>
<feBlend mode="normal" in2="BackgroundImageFix" result="effect1_dropShadow_919_87"/>
<feBlend mode="normal" in="SourceGraphic" in2="effect1_dropShadow_919_87" result="shape"/>
</filter>
</defs>
</svg>
