<svg width="75" height="75" viewBox="0 0 75 75" fill="none" xmlns="http://www.w3.org/2000/svg">
<g filter="url(#filter0_d_919_91)">
<rect x="14.6104" y="12.96" width="46" height="46" rx="23" fill="white" fill-opacity="0.01" shape-rendering="crispEdges"/>
<rect x="15.1104" y="13.46" width="45" height="45" rx="22.5" stroke="white" shape-rendering="crispEdges"/>
<path d="M42.6666 32.0225C43.9791 33.335 44.7916 35.0537 44.7916 36.9287C44.7916 40.7412 41.6041 43.8662 37.7604 43.8662C36.6041 43.8662 35.4791 43.5537 34.4479 43.0225L30.7916 43.96L31.7604 40.3662C31.1666 39.335 30.8229 38.1475 30.8229 36.8975C30.8229 33.085 33.9479 29.96 37.7604 29.96C39.6354 29.96 41.3854 30.71 42.6666 32.0225ZM37.7604 42.6787C40.9479 42.6787 43.6041 40.085 43.6041 36.9287C43.6041 35.3662 42.9479 33.9287 41.8541 32.835C40.7604 31.7412 39.3229 31.1475 37.7916 31.1475C34.6041 31.1475 32.0104 33.7412 32.0104 36.8975C32.0104 37.9912 32.3229 39.0537 32.8854 39.9912L33.0416 40.21L32.4479 42.335L34.6354 41.7412L34.8229 41.8662C35.7291 42.3975 36.7291 42.6787 37.7604 42.6787ZM40.9479 38.3662C41.1041 38.46 41.2291 38.4912 41.2604 38.585C41.3229 38.6475 41.3229 38.9912 41.1666 39.3975C41.0104 39.8037 40.3229 40.1787 40.0104 40.21C39.4479 40.3037 39.0104 40.2725 37.9166 39.7725C36.1666 39.0225 35.0416 37.2725 34.9479 37.1787C34.8541 37.0537 34.2604 36.2412 34.2604 35.3662C34.2604 34.5225 34.6979 34.1162 34.8541 33.9287C35.0104 33.7412 35.1979 33.71 35.3229 33.71C35.4166 33.71 35.5416 33.71 35.6354 33.71C35.7604 33.71 35.8854 33.6787 36.0416 34.0225C36.1666 34.3662 36.5416 35.21 36.5729 35.3037C36.6041 35.3975 36.6354 35.4912 36.5729 35.6162C36.2604 36.2725 35.8854 36.2412 36.0729 36.5537C36.7604 37.71 37.4166 38.1162 38.4479 38.6162C38.6041 38.71 38.6979 38.6787 38.8229 38.585C38.9166 38.46 39.2604 38.0537 39.3541 37.8975C39.4791 37.71 39.6041 37.7412 39.7604 37.8037C39.9166 37.8662 40.7604 38.2725 40.9479 38.3662Z" fill="white"/>
</g>
<defs>
<filter id="filter0_d_919_91" x="0.610352" y="0.959961" width="74" height="74" filterUnits="userSpaceOnUse" color-interpolation-filters="sRGB">
<feFlood flood-opacity="0" result="BackgroundImageFix"/>
<feColorMatrix in="SourceAlpha" type="matrix" values="0 0 0 0 0 0 0 0 0 0 0 0 0 0 0 0 0 0 127 0" result="hardAlpha"/>
<feOffset dy="2"/>
<feGaussianBlur stdDeviation="7"/>
<feComposite in2="hardAlpha" operator="out"/>
<feColorMatrix type="matrix" values="0 0 0 0 0.0156863 0 0 0 0 0.0235294 0 0 0 0 0.258824 0 0 0 0.1 0"/>
<feBlend mode="normal" in2="BackgroundImageFix" result="effect1_dropShadow_919_91"/>
<feBlend mode="normal" in="SourceGraphic" in2="effect1_dropShadow_919_91" result="shape"/>
</filter>
</defs>
</svg>
