<svg width="75" height="75" viewBox="0 0 75 75" fill="none" xmlns="http://www.w3.org/2000/svg">
<g filter="url(#filter0_d_919_93)">
<rect x="14.8096" y="12.96" width="46" height="46" rx="23" fill="white" fill-opacity="0.01" shape-rendering="crispEdges"/>
<rect x="15.3096" y="13.46" width="45" height="45" rx="22.5" stroke="white" shape-rendering="crispEdges"/>
<path d="M46.1189 32.8662C46.4939 34.1787 46.4939 36.9912 46.4939 36.9912C46.4939 36.9912 46.4939 39.7725 46.1189 41.1162C45.9314 41.8662 45.3377 42.4287 44.6189 42.6162C43.2752 42.96 37.9627 42.96 37.9627 42.96C37.9627 42.96 32.6189 42.96 31.2752 42.6162C30.5564 42.4287 29.9627 41.8662 29.7752 41.1162C29.4002 39.7725 29.4002 36.9912 29.4002 36.9912C29.4002 36.9912 29.4002 34.1787 29.7752 32.8662C29.9627 32.1162 30.5564 31.5225 31.2752 31.335C32.6189 30.96 37.9627 30.96 37.9627 30.96C37.9627 30.96 43.2752 30.96 44.6189 31.335C45.3377 31.5225 45.9314 32.1162 46.1189 32.8662ZM36.2127 39.5225L40.6502 36.9912L36.2127 34.46V39.5225Z" fill="white"/>
</g>
<defs>
<filter id="filter0_d_919_93" x="0.80957" y="0.959961" width="74" height="74" filterUnits="userSpaceOnUse" color-interpolation-filters="sRGB">
<feFlood flood-opacity="0" result="BackgroundImageFix"/>
<feColorMatrix in="SourceAlpha" type="matrix" values="0 0 0 0 0 0 0 0 0 0 0 0 0 0 0 0 0 0 127 0" result="hardAlpha"/>
<feOffset dy="2"/>
<feGaussianBlur stdDeviation="7"/>
<feComposite in2="hardAlpha" operator="out"/>
<feColorMatrix type="matrix" values="0 0 0 0 0.0156863 0 0 0 0 0.0235294 0 0 0 0 0.258824 0 0 0 0.1 0"/>
<feBlend mode="normal" in2="BackgroundImageFix" result="effect1_dropShadow_919_93"/>
<feBlend mode="normal" in="SourceGraphic" in2="effect1_dropShadow_919_93" result="shape"/>
</filter>
</defs>
</svg>
